:SAMPLES-PER-SECOND 30
:FULLY-SPECIFIED
:DEGREES
249
root  -4.02942 40.888 0.513119 149.318 -89.3271 -152.245
RightUpLeg  7.63544 -1.64047 -1.3165
RightLeg  -1.44285 -16.8366 0.130919
RightFoot  -1.56543 -0.321706 3.63561
RightToes  -3.13006e-008 1.75238e-005 3.56266e-009
Spine  -6.65638 -0.89105 -0.033223
Spine1  7.1423 -0.953026 -0.177702
HEad  17.5614 -6.40848 9.49795
LeftShoulder1  0.916424 -2.42411 -7.93345
LeftArm  -76.9799 -52.3123 -6.86605
LeftForeArm  78.4168 -79.7024 -71.6248
LeftHand  -0.842442 -1.58392 14.1219
RightShoulder  0.684014 0.996714 7.69834
RightArm  -79.4587 45.1797 0.624003
RightForeArm  95.1542 79.2332 103.474
RightHand  -1.72005 11.8772 -11.9643
LeftUpLeg  7.96969 2.26419 2.21065
LeftLeg  -1.16693 13.4322 -1.07118
LeftFoot  -2.86924 0.241977 -3.0339
LeftToes  4.78685e-008 1.46778e-008 1.34523e-009
250
root  -4.04986 40.8553 0.612859 161.801 -89.0729 -165.23
RightUpLeg  7.73777 -1.8043 -1.53773
RightLeg  -0.446249 -16.3067 -0.139354
RightFoot  -2.17731 -0.333536 3.97442
RightToes  -3.13006e-008 1.75238e-005 3.56266e-009
Spine  -6.78211 -0.769482 0.801347
Spine1  7.60326 -0.69357 -1.20681
HEad  18.541 -6.00543 9.03281
LeftShoulder1  0.861586 -2.14758 -7.68558
LeftArm  -77.5973 -53.9118 -7.83301
LeftForeArm  84.6649 -80.0045 -77.0825
LeftHand  -1.00632 -2.19422 15.5722
RightShoulder  0.482168 0.0140547 6.02204
RightArm  -81.2805 46.0998 -1.79992
RightForeArm  97.1946 79.5316 101.116
RightHand  -1.88 11.6318 -13.125
LeftUpLeg  8.27527 2.47397 2.17455
LeftLeg  -0.474594 13.4522 -1.01961
LeftFoot  -3.40598 0.227793 -2.98993
LeftToes  4.78685e-008 1.46778e-008 1.34523e-009
251
root  -4.06421 40.8107 0.678226 161.811 -89.0675 -166.032
RightUpLeg  8.05868 -2.01601 -1.74088
RightLeg  0.792968 -16.0205 -0.475666
RightFoot  -2.92962 -0.331962 4.23884
RightToes  -3.13006e-008 1.75238e-005 3.56266e-009
Spine  -7.46843 -0.7809 1.36006
Spine1  9.38588 -0.548626 -2.15738
HEad  18.8553 -6.22673 9.08296
LeftShoulder1  0.824281 -1.93158 -7.59485
LeftArm  -76.6611 -54.2604 -9.37618
LeftForeArm  92.5924 -80.1895 -85.8548
LeftHand  -0.956248 -2.0381 15.0952
RightShoulder  0.331563 -0.923508 5.06345
RightArm  -81.2954 46.656 -3.50632
RightForeArm  101.579 79.5605 103.189
RightHand  -2.0734 11.829 -14.2239
LeftUpLeg  8.7713 2.61885 2.11046
LeftLeg  0.396568 13.2778 -0.789667
LeftFoot  -3.99826 0.216244 -2.99469
LeftToes  4.78685e-008 1.46778e-008 1.34523e-009
252
root  -4.09147 40.7609 0.724289 165.75 -89.0649 -170.996
RightUpLeg  8.57204 -2.15202 -1.90561
RightLeg  2.19226 -15.7756 -0.990371
RightFoot  -3.67875 -0.321911 4.42984
RightToes  -3.13006e-008 1.75238e-005 3.56266e-009
Spine  -8.18458 -0.708101 1.53277
Spine1  11.431 -0.363627 -2.69569
HEad  19.0768 -5.62727 8.59097
LeftShoulder1  0.861297 -2.18082 -7.57911
LeftArm  -74.9015 -53.4117 -10.9153
LeftForeArm  100.542 -80.106 -95.405
LeftHand  -0.897947 -1.83549 14.5828
RightShoulder  0.292544 -1.10649 4.31732
RightArm  -79.8048 46.4319 -4.59752
RightForeArm  106.553 79.4707 106.631
RightHand  -1.42979 11.8983 -9.95772
LeftUpLeg  9.56395 2.88604 2.09831
LeftLeg  1.22964 13.008 -0.670918
LeftFoot  -4.5402 0.203135 -2.96189
LeftToes  4.78685e-008 1.46778e-008 1.34523e-009
253
root  -4.14488 40.7014 0.742613 168.558 -89.1272 -174.904
RightUpLeg  9.21792 -2.21207 -1.97994
RightLeg  3.57976 -15.6446 -1.56374
RightFoot  -4.43468 -0.310383 4.63951
RightToes  -3.13006e-008 1.75238e-005 3.56266e-009
Spine  -9.19293 -0.624507 1.6712
Spine1  13.8049 -0.158166 -3.18262
HEad  19.5186 -5.77113 8.70553
LeftShoulder1  0.938099 -2.58228 -7.87373
LeftArm  -72.8388 -52.4071 -12.0978
LeftForeArm  106.054 -79.9038 -101.735
LeftHand  -0.898221 -1.84807 14.5593
RightShoulder  0.332134 -0.830012 4.56258
RightArm  -77.8067 46.7687 -6.22838
RightForeArm  115.37 79.4689 110.615
RightHand  -1.85336 12.4975 -12.3791
LeftUpLeg  10.3763 3.17511 2.14855
LeftLeg  2.26618 12.6285 -0.487086
LeftFoot  -5.26684 0.191003 -3.00126
LeftToes  4.78685e-008 1.46778e-008 1.34523e-009
254
root  -4.18228 40.6451 0.753778 168.144 -89.1612 -175.186
RightUpLeg  9.49633 -2.3388 -2.05921
RightLeg  4.76449 -15.4827 -1.89284
RightFoot  -5.1175 -0.295844 4.79615
RightToes  -3.13006e-008 1.75238e-005 3.56266e-009
Spine  -10.0191 -0.356178 1.68206
Spine1  15.4244 0.0737399 -3.08631
HEad  19.8645 -5.60126 8.0531
LeftShoulder1  1.01219 -2.82209 -8.53303
LeftArm  -70.4438 -51.3954 -13.1861
LeftForeArm  110.106 -79.6652 -106.483
LeftHand  -0.849203 -1.85127 13.7754
RightShoulder  0.337277 -0.694143 4.08086
RightArm  -75.9081 47.7537 -6.86205
RightForeArm  122.855 79.6287 112.396
RightHand  -1.77827 12.1259 -12.1273
LeftUpLeg  10.6452 3.30016 2.1397
LeftLeg  3.41694 12.4538 -0.150241
LeftFoot  -5.8698 0.168472 -2.7867
LeftToes  4.78685e-008 1.46778e-008 1.34523e-009
255
root  -4.18243 40.6107 0.761688 173.29 -89.4474 179.503
RightUpLeg  9.32497 -2.65581 -2.30132
RightLeg  5.59984 -15.3616 -1.98725
RightFoot  -5.57434 -0.283249 4.86578
RightToes  -3.13006e-008 1.75238e-005 3.56266e-009
Spine  -10.3897 0.00851556 1.71821
Spine1  15.7617 0.479194 -3.06518
HEad  20.459 -5.6866 8.06411
LeftShoulder1  1.07365 -3.08997 -8.84975
LeftArm  -67.9116 -50.6465 -14.1422
LeftForeArm  112.034 -79.5387 -108.581
LeftHand  -0.832672 -1.85253 13.5085
RightShoulder  0.31258 -0.757111 3.35324
RightArm  -73.5212 47.7332 -6.20221
RightForeArm  127.869 79.9102 112.12
RightHand  -2.01877 13.127 -12.9841
LeftUpLeg  10.2669 3.28141 2.04453
LeftLeg  4.50064 12.1578 0.0405156
LeftFoot  -6.33903 0.150007 -2.56411
LeftToes  4.78685e-008 1.46778e-008 1.34523e-009
256
root  -4.15762 40.602 0.760223 -5.38212 -89.7946 -1.70595
RightUpLeg  9.20114 -2.83971 -2.33207
RightLeg  5.73213 -15.954 -1.92618
RightFoot  -5.61642 -0.283732 4.9058
RightToes  -3.13006e-008 1.75238e-005 3.56266e-009
Spine  -10.1397 0.399768 1.93056
Spine1  15.2427 0.952561 -3.22352
HEad  20.743 -7.07938 8.70378
LeftShoulder1  1.09183 -3.13916 -9.02064
LeftArm  -65.6784 -50.701 -15.0344
LeftForeArm  114.354 -79.4821 -110.111
LeftHand  -0.859478 -2.20731 13.3117
RightShoulder  0.272582 -1.04449 3.03136
RightArm  -71.911 47.4569 -3.76285
RightForeArm  135.451 79.7456 116.367
RightHand  -2.36634 13.7942 -14.6269
LeftUpLeg  9.66915 3.18707 2.06614
LeftLeg  5.17683 11.4404 0.170964
LeftFoot  -6.51322 0.142866 -2.46114
LeftToes  4.78685e-008 1.46778e-008 1.34523e-009
